# xmcd
#
# Track frame offsets: 
#        150
#        19861
#        41089
#        69868
#        118531
#        145067
#        171120
#        192355
#        234924
#
# Disc length: 3553 seconds
#
# Revision: 0
# Processed by: cddbd v1.5.2PL0 Copyright (c) Steve Scherf et al.
# Submitted via: ExactAudioCopy v0.99pb5
#
DISCID=710ddf09
DTITLE=Dickie James and The Blue Flames -  - The Blues Taste Good
DYEAR=2009
DGENRE=Blues
TTITLE0=Truman Street Blues
TTITLE1=Fly Right
TTITLE2=You Think You So
TTITLE3=Main Road Blues
TTITLE4=The Blues Taste Good
TTITLE5=So Long Baby
TTITLE6=Everybody Got To Pay
TTITLE7=Chicago Skyway
TTITLE8=Sound Mind
EXTD=
EXTT0=
EXTT1=
EXTT2=
EXTT3=
EXTT4=
EXTT5=
EXTT6=
EXTT7=
EXTT8=
PLAYORDER=
